<?xml version="1.0" encoding="utf-8"?>
<!-- Generator: Adobe Illustrator 16.0.0, SVG Export Plug-In . SVG Version: 6.00 Build 0)  -->
<!DOCTYPE svg PUBLIC "-//W3C//DTD SVG 1.1//EN" "http://www.w3.org/Graphics/SVG/1.1/DTD/svg11.dtd">
<svg version="1.1" id="Layer_1" xmlns="http://www.w3.org/2000/svg" xmlns:xlink="http://www.w3.org/1999/xlink" x="0px" y="0px"
	 width="800px" height="638px" viewBox="0 0 800 638" enable-background="new 0 0 800 638" xml:space="preserve">
<g>
	<g>
		<linearGradient id="SVGID_1_" gradientUnits="userSpaceOnUse" x1="129.7583" y1="258.7012" x2="347.7578" y2="258.7012">
			<stop  offset="0" style="stop-color:#1F4297"/>
			<stop  offset="0.5161" style="stop-color:#058CC5"/>
			<stop  offset="0.5797" style="stop-color:#0487C1"/>
			<stop  offset="0.6858" style="stop-color:#0379B8"/>
			<stop  offset="0.8205" style="stop-color:#0064AA"/>
			<stop  offset="0.9194" style="stop-color:#02529F"/>
		</linearGradient>
		<path fill="url(#SVGID_1_)" d="M342.814,490.757H137.185l-1.165-1.934c-0.308-0.502-0.541-0.904-0.706-1.353
			c-0.377-0.983-0.618-2.075-0.734-3.338c-0.232-2.63,0.093-5.091,0.401-7.463c0.09-0.717,0.179-1.432,0.255-2.147
			c0.31-2.882,0.708-6.301,1.419-9.666c0.784-3.686,1.946-9.218,6.986-11.688c1.521-0.734,3.055-0.903,4.178-1.021
			c7.217-0.823,15.164-1.94,25.009-3.544c6.305-1.037,10.713-2.756,13.844-5.439c0.363-0.305,0.765-0.771,1.043-1.87V157.6
			c0-5.452,0.121-10.906,0.232-16.364c0.157-7.697,0.339-15.647,0.143-23.416c-0.255-11.586-2.999-20.015-8.157-25.067
			c-0.918-0.891-1.974-1.666-3.254-2.368c-2.693-1.476-5.866-2.291-9.227-3.154l-2.179-0.573
			c-7.366-1.964-15.098-3.288-22.575-4.556l-1.352-0.231c-1.114-0.189-2.644-0.444-4.117-1.276
			c-4.881-2.738-5.718-8.313-6.278-12.001c-0.513-3.369-0.72-6.693-0.858-9.786c-0.041-0.703-0.095-1.418-0.145-2.125
			c-0.168-2.403-0.353-4.877,0.042-7.504c0.188-1.284,0.487-2.348,0.913-3.302c0.39-0.841,0.885-1.606,1.481-2.269l0.468-0.514
			l0.619-0.322c1.271-0.67,2.254-0.76,15.093-1.365c25.527-1.199,78.637-3.696,114.724-14.09c3.929-1.137,8.224-0.815,12.127,0.872
			c3.73,1.606,6.524,2.908,9.092,4.215c6.121,3.141,9.898,9.298,9.898,16.09v392.317c0.16,0.823,0.384,1.423,0.742,1.879
			c0.116,0.18,0.277,0.331,0.448,0.476c1.064,0.92,2.361,1.717,4.223,2.604c2.713,1.277,5.942,2.235,9.603,2.835
			c9.845,1.612,17.809,2.729,25.014,3.544c1.118,0.117,2.657,0.286,4.18,1.021c5.038,2.461,6.201,7.974,6.971,11.617
			c0.725,3.436,1.12,6.854,1.431,9.736c0.081,0.716,0.162,1.431,0.26,2.147c0.305,2.372,0.627,4.833,0.403,7.454
			c-0.125,1.263-0.358,2.354-0.734,3.338c-0.17,0.457-0.403,0.859-0.652,1.254l-1.173,1.843L342.814,490.757z M142.441,482.827
			h197.376c0.062-1.593-0.152-3.329-0.403-5.138c-0.089-0.787-0.188-1.565-0.286-2.344c-0.296-2.819-0.655-5.853-1.28-8.86
			c-0.521-2.452-1.156-5.424-2.694-6.183c-0.305-0.135-1.039-0.225-1.584-0.279c-7.365-0.823-15.429-1.967-25.417-3.588
			c-4.411-0.725-8.356-1.906-11.731-3.508c-2.48-1.172-4.376-2.354-5.988-3.723c-0.608-0.528-1.144-1.11-1.619-1.744
			c-1.19-1.567-1.933-3.419-2.291-5.685l-0.062-0.626V48.494c0-3.807-2.114-7.249-5.496-8.994c-2.479-1.262-5.127-2.487-8.681-4.027
			c-2.21-0.962-4.68-1.159-6.81-0.541C228.51,45.585,174.766,48.11,148.943,49.327c-4.475,0.201-8.77,0.412-11.039,0.581
			c-0.027,0.143-0.05,0.287-0.076,0.443c-0.255,1.745-0.117,3.691,0.026,5.759c0.067,0.779,0.117,1.553,0.157,2.322
			c0.143,2.873,0.333,5.965,0.784,8.981c0.361,2.416,0.814,5.423,2.335,6.268c0.269,0.157,1.02,0.287,1.562,0.376l1.333,0.232
			c7.661,1.302,15.575,2.64,23.3,4.708l2.098,0.555c3.691,0.944,7.518,1.927,11.08,3.879c1.915,1.056,3.542,2.256,4.974,3.66
			c6.689,6.543,10.234,16.825,10.542,30.544c0.193,7.938,0.008,15.978-0.143,23.765c-0.112,5.405-0.232,10.806-0.232,16.199
			l-0.076,284.956c-0.596,2.819-1.817,4.984-3.755,6.641c-4.277,3.651-9.898,5.96-17.697,7.239
			c-9.986,1.621-18.059,2.765-25.423,3.588c-0.551,0.055-1.285,0.145-1.571,0.279c-1.557,0.759-2.193,3.749-2.694,6.155
			c-0.644,3.035-1.002,6.068-1.299,8.888c-0.079,0.778-0.183,1.557-0.286,2.344C142.611,479.498,142.379,481.226,142.441,482.827z"
			/>
	</g>
	<g>
		<linearGradient id="SVGID_2_" gradientUnits="userSpaceOnUse" x1="189.6401" y1="405.8828" x2="372.0253" y2="405.8828">
			<stop  offset="0" style="stop-color:#1F4297"/>
			<stop  offset="0.5161" style="stop-color:#058CC5"/>
			<stop  offset="0.5797" style="stop-color:#0487C1"/>
			<stop  offset="0.6858" style="stop-color:#0379B8"/>
			<stop  offset="0.8205" style="stop-color:#0064AA"/>
			<stop  offset="0.9194" style="stop-color:#02529F"/>
		</linearGradient>
		<path fill="url(#SVGID_2_)" d="M343.074,474.934c-0.322-3.105-0.715-6.202-1.352-9.254c-0.679-3.238-1.521-7.32-4.84-8.939
			c-0.887-0.438-1.89-0.546-2.883-0.654c-8.412-0.938-16.869-2.201-25.2-3.57c-3.67-0.6-7.33-1.583-10.677-3.167
			c0.277,0.179,0.448,0.294,0.448,0.294s-0.17-0.115-0.448-0.294c-1.826-0.868-3.57-1.854-5.102-3.17
			c-0.403-0.348-0.751-0.714-1.047-1.101c-17.728-12.842-67.477-52.996-100.286-120.114v116.785
			c-0.348,1.683-1.033,3.223-2.451,4.43c-4.354,3.732-10.104,5.407-15.76,6.337c-8.358,1.369-16.812,2.632-25.218,3.57
			c-0.985,0.108-1.988,0.216-2.878,0.654c-3.307,1.619-4.166,5.701-4.847,8.939c-0.644,3.052-1.028,6.148-1.355,9.254
			c-0.308,2.927-0.913,5.889-0.639,8.841c0.062,0.771,0.205,1.551,0.474,2.273c0.108,0.269,0.288,0.493,0.425,0.753h203.375
			c0.153-0.26,0.333-0.484,0.431-0.753c0.277-0.723,0.412-1.502,0.474-2.273C343.987,480.822,343.388,477.86,343.074,474.934z"/>
		<linearGradient id="SVGID_3_" gradientUnits="userSpaceOnUse" x1="235.2827" y1="128.5649" x2="235.2827" y2="430.4215">
			<stop  offset="0" style="stop-color:#1F4297"/>
			<stop  offset="0.5161" style="stop-color:#058CC5"/>
			<stop  offset="0.5797" style="stop-color:#0487C1"/>
			<stop  offset="0.6858" style="stop-color:#0379B8"/>
			<stop  offset="0.8205" style="stop-color:#0064AA"/>
			<stop  offset="0.9194" style="stop-color:#02529F"/>
		</linearGradient>
		<path fill="url(#SVGID_3_)" d="M291.974,445.078c-0.868-1.153-1.306-2.506-1.54-3.928V163.021
			c-32.029-51.135-94.337-71.321-111.843-76.109c1.459,0.797,2.837,1.758,4.113,2.999c7.23,7.087,9.142,18.114,9.361,27.806
			c0.308,13.281-0.377,26.61-0.377,39.886v167.361C224.497,392.082,274.246,432.236,291.974,445.078z"/>
		<linearGradient id="SVGID_4_" gradientUnits="userSpaceOnUse" x1="287.4326" y1="96.8149" x2="139.7458" y2="96.815">
			<stop  offset="0" style="stop-color:#1F4297"/>
			<stop  offset="0.5161" style="stop-color:#058CC5"/>
			<stop  offset="0.5797" style="stop-color:#0487C1"/>
			<stop  offset="0.6858" style="stop-color:#0379B8"/>
			<stop  offset="0.8205" style="stop-color:#0064AA"/>
			<stop  offset="0.9194" style="stop-color:#02529F"/>
		</linearGradient>
		<path fill="url(#SVGID_4_)" d="M290.434,163.021V48.494c0-5.289-2.961-10.112-7.66-12.52c-0.027-0.018-0.036-0.027-0.072-0.036
			c-2.873-1.476-5.844-2.81-8.851-4.103c-2.988-1.298-6.334-1.615-9.468-0.711c-48.071,13.848-126.658,13.88-129.057,15.15
			c-0.331,0.371-0.594,0.792-0.796,1.235c-0.327,0.707-0.506,1.481-0.617,2.247c-0.431,2.926,0,5.928,0.138,8.864
			c0.152,3.137,0.362,6.274,0.823,9.383c0.493,3.257,1.109,7.343,4.304,9.137c0.868,0.483,1.858,0.657,2.837,0.823
			c8.14,1.388,16.297,2.734,24.275,4.868c4.283,1.137,8.551,2.019,12.301,4.081C196.097,91.701,258.405,111.887,290.434,163.021z"/>
	</g>
</g>
<g>
	<g>
		<linearGradient id="SVGID_5_" gradientUnits="userSpaceOnUse" x1="299.5615" y1="257.1074" x2="678.2773" y2="257.1074">
			<stop  offset="0" style="stop-color:#1F4297"/>
			<stop  offset="0.5161" style="stop-color:#058CC5"/>
			<stop  offset="0.5797" style="stop-color:#0487C1"/>
			<stop  offset="0.6858" style="stop-color:#0379B8"/>
			<stop  offset="0.8205" style="stop-color:#0064AA"/>
			<stop  offset="0.9194" style="stop-color:#02529F"/>
		</linearGradient>
		<path fill="url(#SVGID_5_)" d="M464.767,490.757c-8.002,0-16.189-0.985-24.324-2.9c-16.253-3.848-32.496-11.383-46.957-21.818
			c-7.499-5.271-14.793-11.402-21.631-18.202c-5.654-5.549-11.249-11.777-16.591-18.517l-0.716-0.895
			c-0.645-0.814-1.306-1.638-1.924-2.461c-5.674-7.393-11.115-15.482-16.135-24.039c-5.093-8.661-9.809-17.896-14.023-27.464
			c-1.54-3.481-2.945-7.096-4.332-10.73c-2.641-6.819-4.671-12.601-6.426-18.221c-1.422-4.688-2.755-9.504-4.178-15.178
			l-3.347-16.037c-3.374-19.492-4.914-39.654-4.574-60.055c0.716-39.604,8.753-78.537,23.215-112.593
			c1.548-3.893,3.383-7.754,5.01-11.161l2.291-4.797c0.716-1.431,1.217-2.335,1.746-3.288l3.875-7.062l7.902-12.8
			c1.933-2.918,3.786-5.711,5.959-8.588c10.319-14.104,21.979-26.337,34.633-36.289c2.533-2.009,5.253-4.018,8.056-5.952
			c4.178-2.863,8.636-5.58,13.28-8.076c4.027-2.166,8.018-4.081,11.874-5.696c2.158-0.917,4.359-1.759,6.543-2.56
			c2.059-0.743,4.098-1.441,6.166-2.072c2.541-0.788,5.245-1.531,8.242-2.256c16.145-3.896,33.041-6.313,50.206-7.177l2.37-0.125
			c1.755-0.107,3.517-0.202,5.28-0.242c1.54-0.031,3.098-0.049,4.663-0.049c21.665,0,40.219,3.409,56.694,10.431
			c8.715,3.7,17.396,8.623,26.541,15.052c7.645,5.383,14.981,11.554,21.838,18.364c6.802,6.649,13.271,14.015,19.232,21.872
			c11.525,14.995,21.693,32.325,30.157,51.493c4.01,9.151,7.616,18.893,10.74,28.961c1.44,4.688,2.773,9.504,4.195,15.164
			l0.155,0.613l3.193,15.429c2.425,14.009,3.91,28.574,4.413,43.439c0.186,6.018,0.241,11.45,0.161,16.614
			c-0.447,24.633-3.695,48.938-9.665,72.25l-0.09,0.395c-0.352,1.361-0.744,2.703-1.137,4.046l-0.593,2.076
			c-3.399,12.099-7.354,23.482-11.75,33.829c-1.519,3.811-3.275,7.552-5.001,11.159l-2.291,4.797
			c-0.689,1.378-1.171,2.282-1.684,3.195l-3.982,7.213l-7.874,12.771c-1.826,2.765-3.716,5.62-5.926,8.546
			c-2.648,3.606-5.558,7.284-8.868,11.195c-8.081,9.566-16.762,18.015-25.783,25.102c-7.956,6.319-16.521,11.761-25.433,16.173
			c-1.729,0.902-3.616,1.781-5.576,2.63c-5.881,2.551-12.591,4.707-20.512,6.623c-12.52,3.016-25.406,5.163-38.293,6.398
			c-9.63,0.921-19.053,1.101-28.164,1.271c-2.963,0.045-5.646,0.099-8.358,0.171C466.448,490.757,465.616,490.757,464.767,490.757z
			 M500.921,31.387c-1.504,0-2.999,0.018-4.501,0.054c-1.656,0.031-3.32,0.125-4.984,0.219L489,31.804
			c-16.663,0.832-33.059,3.177-48.737,6.958c-2.801,0.685-5.352,1.374-7.75,2.125c-1.959,0.605-3.901,1.249-5.825,1.942
			c-2.059,0.751-4.108,1.553-6.175,2.416c-3.626,1.522-7.384,3.33-11.187,5.379c-4.385,2.362-8.602,4.922-12.53,7.625
			c-2.675,1.83-5.234,3.722-7.634,5.629c-12.107,9.512-23.258,21.228-33.174,34.803c-2.086,2.744-3.875,5.424-5.603,8.037
			l-2.255,3.436l-9.327,16.092c-0.482,0.868-0.93,1.687-1.538,2.908l-2.255,4.748c-1.584,3.302-3.357,7.029-4.852,10.762
			c-14.122,33.21-21.935,71.127-22.623,109.722c-0.331,19.89,1.154,39.55,4.43,58.424l3.276,15.742
			c1.369,5.388,2.649,10.086,4.054,14.623c1.681,5.433,3.669,11.061,6.22,17.694c1.369,3.526,2.72,7.034,4.206,10.398
			c4.097,9.271,8.672,18.238,13.611,26.651c4.851,8.27,10.095,16.082,15.581,23.233c0.627,0.804,1.227,1.557,1.834,2.325
			l0.733,0.912c5.127,6.479,10.498,12.477,15.938,17.801c6.551,6.505,13.495,12.351,20.654,17.389
			c13.676,9.854,28.935,16.958,44.201,20.565c8.313,1.968,16.824,2.908,24.771,2.657c2.722-0.07,5.443-0.124,8.162-0.179
			c9.227-0.16,18.49-0.331,27.814-1.227c12.528-1.199,25.05-3.293,37.203-6.211c7.481-1.807,13.755-3.829,19.222-6.192
			c1.771-0.77,3.491-1.575,5.129-2.425c8.501-4.206,16.583-9.344,24.109-15.33c8.608-6.766,16.905-14.838,24.646-24.001
			c3.186-3.76,5.988-7.295,8.548-10.803c2.101-2.783,3.918-5.522,5.673-8.171l2.165-3.293l9.325-16.073
			c0.501-0.93,0.949-1.717,1.531-2.909l2.273-4.77c1.664-3.48,3.383-7.096,4.851-10.747c4.285-10.122,8.116-21.183,11.409-32.96
			l0.627-2.148c0.365-1.252,0.724-2.515,1.074-3.803l3.938,0.599l-3.848-0.983c5.825-22.706,8.984-46.412,9.421-70.427
			c0.073-5.021,0.021-10.333-0.168-16.202c-0.493-14.499-1.926-28.71-4.269-42.232l-3.275-15.644
			c-1.361-5.463-2.66-10.157-4.045-14.708c-3.045-9.767-6.562-19.237-10.427-28.1c-8.225-18.57-18.042-35.354-29.219-49.879
			c-5.737-7.562-11.948-14.631-18.498-21.03c-6.552-6.52-13.55-12.409-20.816-17.523c-8.681-6.103-16.879-10.761-25.075-14.242
			C539.034,34.596,521.505,31.387,500.921,31.387z M488.938,436.846c-6.695-0.009-13.121-1.978-19.143-5.861
			c-1.665-1.064-3.114-2.122-4.43-3.194l-0.179-0.144c-0.109-0.09-0.207-0.17-0.314-0.251l-0.296-0.259
			c-5.307-4.511-10.496-10.623-15.821-18.66c-2.702-4.089-5.253-8.537-7.599-13.2c-2.415-4.698-4.725-9.861-6.89-15.294
			c-4.172-10.399-7.885-22.337-11.026-35.457c-1.637-7.16-2.907-13.585-3.893-19.662c-2.686-16.869-4.152-34.597-4.357-52.688
			c-0.028-2.635,0.025-5.271,0.062-7.916l0.018-1.619c0.1-6.99,0.402-14.314,0.896-21.766c0.582-8.675,1.405-17.132,2.461-25.151
			c1.288-10.027,2.846-19.881,4.618-29.295c5.468-29.237,13.102-53.176,23.331-73.169c7.804-15.258,20.671-35.532,42.266-35.532
			h0.313c1.468,0.013,2.954,0.121,4.402,0.313c4.941,0.671,9.882,2.561,14.67,5.633c1.728,1.097,3.419,2.368,5.055,3.754
			c5.603,4.461,9.504,8.798,11.858,13.183l0.106,0.241c4.189,5.718,8.101,12.091,11.617,18.959c2.435,4.71,4.752,9.874,6.9,15.339
			c15.097,38.302,21.62,81.839,19.411,129.396c-1.325,28.333-5.692,57.051-12.995,85.356l-0.904,3.5
			c-0.922,3.562-1.896,7.429-2.997,11.447c-0.814,3.024-1.683,6.13-2.632,9.28c-6.104,20.44-16.689,48.773-37.854,58.77
			c-3.447,1.637-6.902,2.729-10.553,3.364C492.786,436.667,490.79,436.846,488.938,436.846z M470.869,422.044
			c0.966,0.753,2.023,1.504,3.231,2.273c4.707,3.061,9.7,4.601,14.793,4.601h0.009c1.414,0,2.971-0.145,4.779-0.467
			c2.935-0.51,5.718-1.396,8.51-2.72c18.319-8.646,27.977-34.885,33.667-53.867c0.913-3.086,1.781-6.13,2.56-9.082
			c1.083-3.993,2.066-7.813,2.971-11.349l0.904-3.509c7.178-27.787,11.473-55.962,12.761-83.751
			c2.167-46.433-4.197-88.87-18.864-126.117c-2.059-5.226-4.269-10.143-6.569-14.628c-3.399-6.604-7.149-12.711-11.168-18.171
			l-0.526-0.944c-1.774-3.338-5.112-6.967-9.873-10.761c-1.459-1.24-2.881-2.291-4.313-3.208c-3.803-2.439-7.652-3.938-11.437-4.438
			c-1.182-0.162-2.318-0.238-3.41-0.251l-0.252-3.96v3.96c-17.244,0-28.35,17.823-35.204,31.219
			c-9.882,19.299-17.273,42.54-22.616,71.012c-1.718,9.268-3.257,18.974-4.546,28.862c-1.013,7.849-1.825,16.145-2.398,24.655
			c-0.482,7.312-0.787,14.494-0.868,21.349l-0.036,1.624c-0.035,2.577-0.071,5.145-0.045,7.718
			c0.189,17.697,1.62,35.033,4.261,51.509c0.947,5.915,2.184,12.17,3.775,19.115c3.035,12.708,6.631,24.271,10.677,34.33
			c2.059,5.217,4.27,10.131,6.595,14.64c2.212,4.43,4.609,8.582,7.143,12.404c5.021,7.598,9.835,13.262,14.687,17.308
			L470.869,422.044z"/>
	</g>
	<g>
		<linearGradient id="SVGID_6_" gradientUnits="userSpaceOnUse" x1="522.498" y1="238.0957" x2="522.498" y2="-42.9187">
			<stop  offset="0" style="stop-color:#1F4297"/>
			<stop  offset="0.5161" style="stop-color:#058CC5"/>
			<stop  offset="0.5797" style="stop-color:#0487C1"/>
			<stop  offset="0.6858" style="stop-color:#0379B8"/>
			<stop  offset="0.8205" style="stop-color:#0064AA"/>
			<stop  offset="0.9194" style="stop-color:#02529F"/>
		</linearGradient>
		<path fill="url(#SVGID_6_)" d="M510.522,90.448c4.94,3.938,8.745,7.956,10.927,12.033c0.056,0.138,0.117,0.291,0.198,0.423
			c4.376,5.947,8.232,12.377,11.5,18.713c2.37,4.628,4.618,9.621,6.729,14.986c15.778,40.062,21.175,84.109,19.134,127.759
			c0,0,0.044-0.017,0.053-0.026c125.335-63.956,62.993-172.766,62.993-172.766c-5.833-7.701-12.215-14.958-18.864-21.456
			c-6.676-6.641-13.854-12.676-21.308-17.925c-8.913-6.264-17.353-11.07-25.819-14.663c-15.983-6.792-34.015-10.099-55.145-10.099
			c-1.538,0-3.061,0.014-4.591,0.045c-2.514,0.062-5.012,0.241-7.536,0.367c-16.592,0.828-33.175,3.132-49.47,7.07
			c-2.883,0.702-5.505,1.414-7.992,2.183c-2.015,0.626-4.009,1.298-5.997,2.013c-2.129,0.77-4.242,1.593-6.354,2.488
			c-3.893,1.634-7.742,3.5-11.545,5.531c33.39,9.478,75.185,23.787,98.442,39.883C507.507,88.049,509.047,89.2,510.522,90.448z"/>
		<linearGradient id="SVGID_7_" gradientUnits="userSpaceOnUse" x1="366.6963" y1="450.3193" x2="674.9711" y2="396.2969">
			<stop  offset="0" style="stop-color:#1F4297"/>
			<stop  offset="0.5161" style="stop-color:#058CC5"/>
			<stop  offset="0.5797" style="stop-color:#0487C1"/>
			<stop  offset="0.6858" style="stop-color:#0379B8"/>
			<stop  offset="0.8205" style="stop-color:#0064AA"/>
			<stop  offset="0.9194" style="stop-color:#02529F"/>
		</linearGradient>
		<path fill="url(#SVGID_7_)" d="M494.36,432.362c-1.87,0.331-3.705,0.527-5.467,0.527c0,0-93.011,1.45-148.987-32.968
			c4.94,8.412,10.246,16.323,15.875,23.643c0.842,1.109,1.719,2.192,2.604,3.293c5.127,6.479,10.587,12.62,16.261,18.159
			c6.676,6.631,13.845,12.663,21.157,17.801c14.041,10.139,29.8,17.459,45.551,21.181c7.839,1.854,15.715,2.803,23.412,2.803
			c0.813,0,1.61-0.019,2.389-0.036c2.73-0.072,5.469-0.126,8.188-0.179c9.092-0.162,18.517-0.331,28.065-1.244
			c12.742-1.227,25.433-3.354,37.747-6.309c7.706-1.854,14.149-3.929,19.867-6.398c1.862-0.807,3.66-1.657,5.379-2.551
			c8.681-4.305,17.021-9.612,24.743-15.734c8.933-7.015,17.399-15.294,25.212-24.547c2.997-3.544,5.915-7.195,8.715-11.016
			c2.15-2.848,4.002-5.639,5.791-8.333l2.176-3.302l5.558-9.218l1.95-3.579l1.968-3.554c0.512-0.903,0.985-1.764,1.61-3.068
			l2.302-4.797c1.692-3.563,3.435-7.241,4.94-10.999c4.536-10.66,8.333-21.845,11.581-33.354
			C639.23,412.397,521.235,429.417,494.36,432.362z"/>
		<linearGradient id="SVGID_8_" gradientUnits="userSpaceOnUse" x1="581.8496" y1="407.3496" x2="595.2307" y2="83.7249">
			<stop  offset="0" style="stop-color:#1F4297"/>
			<stop  offset="0.5161" style="stop-color:#058CC5"/>
			<stop  offset="0.5797" style="stop-color:#0487C1"/>
			<stop  offset="0.6858" style="stop-color:#0379B8"/>
			<stop  offset="0.8205" style="stop-color:#0064AA"/>
			<stop  offset="0.9194" style="stop-color:#02529F"/>
		</linearGradient>
		<path fill="url(#SVGID_8_)" d="M674.105,244.415c-0.482-14.569-1.922-28.938-4.323-42.776l-3.183-15.322l-0.128-0.55
			c-1.412-5.653-2.721-10.382-4.123-14.967c-3.09-9.92-6.642-19.497-10.578-28.531c-8.343-18.873-18.374-35.971-29.714-50.697
			c0,0,62.342,108.81-62.993,172.766c-0.009,0.009-0.045,0.012-0.045,0.012c-1.36,28.791-5.871,57.409-12.886,84.562
			c-1.163,4.475-2.426,9.54-3.867,14.909c-0.813,2.979-1.681,6.051-2.621,9.182c-6.738,22.572-17.12,47.522-35.753,56.318
			c-3.338,1.565-6.497,2.506-9.531,3.043c26.875-2.945,144.87-19.965,168.588-93.778c0.544-2.015,1.171-4.001,1.698-6.042
			c0.018-0.115,0.062-0.258,0.1-0.384c5.836-22.843,9.091-46.948,9.531-71.334C674.357,255.329,674.295,249.86,674.105,244.415z"/>
		<linearGradient id="SVGID_9_" gradientUnits="userSpaceOnUse" x1="405.3525" y1="217.2798" x2="405.3525" y2="471.2813">
			<stop  offset="0" style="stop-color:#1F4297"/>
			<stop  offset="0.5161" style="stop-color:#058CC5"/>
			<stop  offset="0.5797" style="stop-color:#0487C1"/>
			<stop  offset="0.6858" style="stop-color:#0379B8"/>
			<stop  offset="0.8205" style="stop-color:#0064AA"/>
			<stop  offset="0.9194" style="stop-color:#02529F"/>
		</linearGradient>
		<path fill="url(#SVGID_9_)" d="M321.812,362.299c1.404,3.571,2.784,7.141,4.277,10.56c4.197,9.503,8.815,18.542,13.818,27.063
			c55.976,34.418,148.987,32.968,148.987,32.968c-6.211-0.009-11.831-1.941-16.941-5.234c-1.433-0.922-2.837-1.915-4.206-3.033
			l-0.045-0.036c-5.889-4.869-11.052-11.383-15.644-18.311c-2.596-3.937-5.047-8.179-7.356-12.771
			c-2.371-4.627-4.626-9.62-6.729-14.981c-4.136-10.229-7.787-22.023-10.865-34.91c-1.629-7.089-2.864-13.352-3.839-19.385
			c-2.756-17.218-4.116-34.65-4.296-52.098c-0.036-3.145,0.018-6.281,0.054-9.432c0.108-7.19,0.42-14.381,0.896-21.563
			c0.563-8.328,1.351-16.633,2.425-24.896c1.253-9.594,2.775-19.339,4.591-29.077h-0.045
			C361.08,188.567,333.114,293.501,321.812,362.299z"/>
		<linearGradient id="SVGID_10_" gradientUnits="userSpaceOnUse" x1="404.6982" y1="62.646" x2="404.6982" y2="346.5222">
			<stop  offset="0" style="stop-color:#1F4297"/>
			<stop  offset="0.5161" style="stop-color:#058CC5"/>
			<stop  offset="0.5797" style="stop-color:#0487C1"/>
			<stop  offset="0.6858" style="stop-color:#0379B8"/>
			<stop  offset="0.8205" style="stop-color:#0064AA"/>
			<stop  offset="0.9194" style="stop-color:#02529F"/>
		</linearGradient>
		<path fill="url(#SVGID_10_)" d="M488.919,81.695c1.28,0.009,2.562,0.098,3.903,0.277c4.68,0.622,9.075,2.479,13.057,5.035
			c-23.258-16.096-65.053-30.405-98.442-39.883c-4.394,2.377-8.706,4.976-12.887,7.857c-2.711,1.853-5.359,3.813-7.866,5.791
			c-12.359,9.728-23.823,21.764-33.918,35.573c-2.147,2.842-3.999,5.646-5.808,8.358l-2.139,3.28l-5.592,9.276l-2.237,4.054
			l-1.664,3.016c-0.503,0.899-0.977,1.762-1.621,3.061l-2.282,4.8c-1.7,3.558-3.445,7.241-4.939,11.004
			c-14.284,33.591-22.203,72.001-22.919,111.114c-0.339,20.156,1.199,40.163,4.492,59.18l3.304,15.876
			c1.404,5.567,2.711,10.31,4.133,14.973c1.916,6.166,4.063,12.125,6.319,17.96c11.302-68.797,39.268-173.731,105.081-175.137h0.045
			c4.671-24.958,11.581-49.865,22.973-72.094C457.795,99.647,469.83,81.516,488.919,81.695z"/>
	</g>
</g>
<polygon fill="#F15A2B" points="788,319.32 659.328,319.32 472.674,319.32 472.674,270.661 472.674,222 659.328,222 788,222 
	748.139,270.661 "/>
<g>
	<polygon fill="#FFFFFF" points="511.194,269.378 496.146,242.015 487.012,242.015 506.655,277.766 506.655,300.564 
		514.741,300.564 514.741,277.672 516.837,274.082 535.583,242.015 526.462,242.015 	"/>
	<polygon fill="#FFFFFF" points="542.679,293.835 542.679,300.564 563.694,300.564 576.214,300.564 576.214,293.835 
		550.726,293.835 550.726,274.992 574.842,274.992 574.842,268.36 550.726,268.36 550.726,248.743 576.214,248.743 576.214,242.015 
		542.679,242.015 	"/>
	<path fill="#FFFFFF" d="M603.741,242.015l-7.896,23.212l-6.01,17.678l0,0l0,0l-5.98,17.66h8.252l3.059-9.285l0,0l2.216-6.7
		l0.434-1.591l1.715-5.432h17.726l1.727,5.452l0.421,1.57l5.437,15.985h8.553l-19.97-58.55H603.741z M615.256,271.288h-13.728
		l1.534-4.824l2.053-6.112c1.212-3.777,2.243-7.556,3.127-11.239h0.203c0.911,3.595,1.837,7.271,3.209,11.323l2.16,6.334
		L615.256,271.288z"/>
	<path fill="#FFFFFF" d="M672.313,275.149c5.951-2.998,10.031-8.944,10.031-15.781c0-9.842-8.428-17.829-18.773-17.829h-11.161
		h-3.942h-4.092v1.305v34.372v23.349h8.034v-23.349h7.547c7.283,0.272,10.587,3.488,12.423,12.059
		c1.086,4.765,2.026,8.618,2.813,11.29h8.279c-0.963-3.127-2.093-7.703-3.438-13.501
		C678.714,281.274,676.254,277.136,672.313,275.149z M663.57,270.142h-11.161v-21.553h11.161c6.241,0,11.337,4.846,11.337,10.779
		C674.907,265.314,669.812,270.142,663.57,270.142z"/>
	<path fill="#FFFFFF" d="M715.679,268.727c-0.571-0.217-1.105-0.427-1.606-0.646c-0.451-0.21-0.911-0.401-1.387-0.613
		c-0.137-0.067-0.325-0.136-0.45-0.204v0.009c-0.612-0.23-1.184-0.477-1.805-0.715c-8.174-3.071-11.758-5.709-11.758-11.077
		c0-3.916,3.056-8.592,11.145-8.592c3.427,0,6.294,0.701,8.404,1.468c3.546,1.638,6.006,4.994,6.006,8.89
		c0,0.49-0.068,0.961-0.151,1.442c2.408-0.014,4.799,0.06,7.153,0.229c0.052-0.549,0.095-1.106,0.095-1.672
		c0-9.086-8.032-16.49-17.917-16.49h-3.642l0.011,0.016c-11.324,0.115-18.853,6.722-18.853,15.564
		c0,8.09,5.979,12.947,15.646,16.266c0.695,0.251,1.333,0.519,1.971,0.769c1.031,0.495,2.094,0.958,3.275,1.393
		c8.17,3.071,11.774,5.709,11.774,11.079c0,3.914-3.072,8.593-11.161,8.593c-3.427,0-6.294-0.694-8.403-1.468
		c-3.532-1.633-6.007-4.989-6.007-8.88c0-0.502,0.068-0.971,0.151-1.452c-2.381,0.013-4.788-0.055-7.153-0.232
		c-0.052,0.552-0.093,1.114-0.093,1.685c0,9.083,8.031,16.478,17.915,16.478h3.631v-0.014c11.35-0.128,18.854-6.716,18.854-15.559
		C731.324,276.897,725.354,272.044,715.679,268.727z"/>
</g>
<g>
	<rect x="22.835" y="524.853" fill="#F15A2B" width="717.577" height="13.228"/>
</g>
<g>
	<linearGradient id="SVGID_11_" gradientUnits="userSpaceOnUse" x1="19.479" y1="582.8262" x2="77.8994" y2="582.8262">
		<stop  offset="0" style="stop-color:#1F4297"/>
		<stop  offset="0.5161" style="stop-color:#058CC5"/>
		<stop  offset="0.5797" style="stop-color:#0487C1"/>
		<stop  offset="0.6858" style="stop-color:#0379B8"/>
		<stop  offset="0.8205" style="stop-color:#0064AA"/>
		<stop  offset="0.9194" style="stop-color:#02529F"/>
	</linearGradient>
	<path fill="url(#SVGID_11_)" d="M48.595,556.533c8.864,0,15.89,2.397,21.076,7.178c5.486,5.01,8.229,11.489,8.229,19.428
		c0,4.858-1.315,9.406-3.946,13.622c-5.138,8.233-13.568,12.358-25.283,12.358c-8.787,0-15.776-2.399-20.963-7.187
		c-2.782-2.551-4.891-5.62-6.332-9.191c-1.266-3.148-1.897-6.461-1.897-9.934c0-5.093,1.302-9.736,3.911-13.961
		C28.379,560.784,36.783,556.677,48.595,556.533z M48.636,565.159c-4.846,0-8.882,1.441-12.109,4.314
		c-3.825,3.401-5.736,7.849-5.736,13.352c0,5.496,1.911,9.952,5.736,13.343c3.227,2.873,7.29,4.307,12.181,4.307
		c4.895,0,8.94-1.434,12.144-4.307c1.915-1.708,3.378-3.803,4.398-6.281c0.891-2.21,1.338-4.483,1.338-6.846
		c0-5.746-1.911-10.274-5.736-13.567C57.598,566.646,53.526,565.214,48.636,565.159z"/>
	<linearGradient id="SVGID_12_" gradientUnits="userSpaceOnUse" x1="85.8643" y1="581.6357" x2="134.687" y2="581.6357">
		<stop  offset="0" style="stop-color:#1F4297"/>
		<stop  offset="0.5161" style="stop-color:#058CC5"/>
		<stop  offset="0.5797" style="stop-color:#0487C1"/>
		<stop  offset="0.6858" style="stop-color:#0379B8"/>
		<stop  offset="0.8205" style="stop-color:#0064AA"/>
		<stop  offset="0.9194" style="stop-color:#02529F"/>
	</linearGradient>
	<path fill="url(#SVGID_12_)" d="M99.333,586.003v18.311c0,0.77,0.184,1.351,0.542,1.762c0.358,0.412,0.975,0.733,1.843,0.949v1.2
		H85.864v-1.2c0.895-0.241,1.512-0.573,1.861-0.967c0.344-0.394,0.519-0.975,0.519-1.744V561.33c0-0.77-0.175-1.352-0.519-1.744
		c-0.349-0.403-0.966-0.728-1.861-0.977v-1.182h44.953c0.742,0,1.316-0.18,1.714-0.519c0.393-0.341,0.715-0.966,0.966-1.862h1.19
		v13.139h-1.19c-0.251-0.913-0.574-1.54-0.966-1.879c-0.398-0.342-0.972-0.51-1.714-0.51H99.333v12.125h20.579
		c0.77,0,1.352-0.171,1.75-0.521c0.4-0.356,0.72-0.975,0.968-1.86h1.193v12.842h-1.193c-0.248-0.885-0.568-1.494-0.968-1.853
		c-0.397-0.349-0.98-0.527-1.75-0.527H99.333z"/>
	<linearGradient id="SVGID_13_" gradientUnits="userSpaceOnUse" x1="160.3672" y1="582.8262" x2="210.3789" y2="582.8262">
		<stop  offset="0" style="stop-color:#1F4297"/>
		<stop  offset="0.5161" style="stop-color:#058CC5"/>
		<stop  offset="0.5797" style="stop-color:#0487C1"/>
		<stop  offset="0.6858" style="stop-color:#0379B8"/>
		<stop  offset="0.8205" style="stop-color:#0064AA"/>
		<stop  offset="0.9194" style="stop-color:#02529F"/>
	</linearGradient>
	<path fill="url(#SVGID_13_)" d="M173.836,585.922v13.926h32.673c0.748,0,1.316-0.18,1.714-0.521
		c0.395-0.348,0.717-0.965,0.966-1.86h1.19v13.139h-1.19c-0.25-0.896-0.572-1.523-0.966-1.862c-0.398-0.35-0.966-0.519-1.714-0.519
		h-46.142v-1.2c0.894-0.241,1.512-0.573,1.862-0.967c0.345-0.394,0.519-0.975,0.519-1.744V561.33c0-0.77-0.174-1.352-0.519-1.744
		c-0.35-0.403-0.968-0.728-1.862-0.977v-1.182h45.251c0.742,0,1.311-0.18,1.708-0.536c0.399-0.358,0.722-0.968,0.968-1.845h1.194
		v13.139h-1.194c-0.246-0.896-0.568-1.504-0.968-1.862c-0.398-0.35-0.966-0.526-1.708-0.526h-31.783v12.053h20.618
		c0.743,0,1.311-0.169,1.709-0.519c0.399-0.339,0.722-0.966,0.968-1.862h1.193v12.842h-1.193c-0.246-0.867-0.568-1.476-0.968-1.843
		c-0.398-0.358-0.966-0.546-1.709-0.546H173.836z"/>
	<linearGradient id="SVGID_14_" gradientUnits="userSpaceOnUse" x1="213.9497" y1="582.8262" x2="270.8184" y2="582.8262">
		<stop  offset="0" style="stop-color:#1F4297"/>
		<stop  offset="0.5161" style="stop-color:#058CC5"/>
		<stop  offset="0.5797" style="stop-color:#0487C1"/>
		<stop  offset="0.6858" style="stop-color:#0379B8"/>
		<stop  offset="0.8205" style="stop-color:#0064AA"/>
		<stop  offset="0.9194" style="stop-color:#02529F"/>
	</linearGradient>
	<path fill="url(#SVGID_14_)" d="M248.82,581.932l15.322,19.741c1.7,2.184,2.899,3.57,3.633,4.17
		c0.733,0.591,1.755,0.985,3.043,1.182v1.2h-20.153v-1.2c1.484-0.295,2.237-0.938,2.237-1.933c0-0.519-0.448-1.36-1.344-2.523
		l-9.485-12.278l-9.571,11.865c-1.021,1.308-1.526,2.239-1.526,2.794c0,1.234,0.827,1.932,2.492,2.075v1.2H213.95v-1.2
		c1.142-0.126,2.027-0.448,2.663-0.967c0.632-0.52,1.901-1.987,3.813-4.385l15.527-19.313l-14.297-18.498
		c-1.839-2.406-3.061-3.856-3.665-4.341c-0.608-0.483-1.583-0.787-2.921-0.912l-0.04-1.182h20.381v1.182
		c-1.485,0.402-2.232,1.162-2.232,2.273c0,0.6,0.532,1.593,1.602,2.979l7.885,10.156l8.161-10.156c1.2-1.513,1.79-2.585,1.79-3.195
		c0-1.092-0.858-1.78-2.568-2.058v-1.182h19.842v1.182c-1.201,0.125-2.041,0.395-2.56,0.806c-0.501,0.411-1.809,1.896-3.92,4.447
		L248.82,581.932z"/>
	<linearGradient id="SVGID_15_" gradientUnits="userSpaceOnUse" x1="271.2573" y1="582.8262" x2="328.7563" y2="582.8262">
		<stop  offset="0" style="stop-color:#1F4297"/>
		<stop  offset="0.5161" style="stop-color:#058CC5"/>
		<stop  offset="0.5797" style="stop-color:#0487C1"/>
		<stop  offset="0.6858" style="stop-color:#0379B8"/>
		<stop  offset="0.8205" style="stop-color:#0064AA"/>
		<stop  offset="0.9194" style="stop-color:#02529F"/>
	</linearGradient>
	<path fill="url(#SVGID_15_)" d="M321.686,590.772l7.07,10.578l-0.968,0.681c-0.697-0.654-1.271-0.975-1.717-0.975
		c-0.448,0-1.7,0.6-3.76,1.787c-4.259,2.463-7.857,4.127-10.765,4.986c-2.917,0.859-6.39,1.289-10.408,1.289
		c-8.01,0-14.586-1.907-19.715-5.701c-3.033-2.21-5.414-4.948-7.15-8.225c-2.004-3.741-3.016-7.875-3.016-12.386
		c0-6.157,1.798-11.509,5.396-16.036c5.414-6.829,13.584-10.238,24.53-10.238c4.018,0,7.463,0.421,10.344,1.261
		c2.873,0.852,6.471,2.507,10.784,4.985c2.06,1.164,3.312,1.755,3.76,1.755c0.446,0,1.02-0.322,1.717-0.967l0.968,0.661
		l-7.07,10.613l-1.011-0.67c0.054-0.395,0.08-0.725,0.08-1.002c0-0.717-0.313-1.387-0.93-2.014
		c-0.627-0.636-1.728-1.396-3.311-2.291c-4.396-2.47-9.049-3.706-13.961-3.706c-5.799,0-10.425,1.45-13.88,4.351
		c-4.063,3.4-6.104,7.84-6.104,13.315c0,5.478,2.041,9.907,6.104,13.298c3.455,2.9,8.082,4.352,13.88,4.352
		c4.912,0,9.566-1.235,13.961-3.714c1.583-0.896,2.684-1.657,3.311-2.292c0.617-0.636,0.93-1.308,0.93-2.031
		c0-0.269-0.026-0.591-0.08-0.968L321.686,590.772z"/>
	<linearGradient id="SVGID_16_" gradientUnits="userSpaceOnUse" x1="336.3706" y1="582.8262" x2="386.3896" y2="582.8262">
		<stop  offset="0" style="stop-color:#1F4297"/>
		<stop  offset="0.5161" style="stop-color:#058CC5"/>
		<stop  offset="0.5797" style="stop-color:#0487C1"/>
		<stop  offset="0.6858" style="stop-color:#0379B8"/>
		<stop  offset="0.8205" style="stop-color:#0064AA"/>
		<stop  offset="0.9194" style="stop-color:#02529F"/>
	</linearGradient>
	<path fill="url(#SVGID_16_)" d="M349.848,585.922v13.926h32.674c0.743,0,1.314-0.18,1.709-0.521
		c0.395-0.348,0.717-0.965,0.966-1.86h1.192v13.139h-1.192c-0.249-0.896-0.571-1.523-0.966-1.862
		c-0.395-0.35-0.966-0.519-1.709-0.519h-46.152v-1.2c0.896-0.241,1.523-0.573,1.862-0.967c0.35-0.394,0.529-0.975,0.529-1.744
		V561.33c0-0.77-0.179-1.352-0.529-1.744c-0.339-0.403-0.966-0.728-1.862-0.977v-1.182h45.256c0.742,0,1.316-0.18,1.711-0.536
		c0.393-0.358,0.715-0.968,0.966-1.845h1.19v13.139h-1.19c-0.251-0.896-0.573-1.504-0.966-1.862
		c-0.395-0.35-0.969-0.526-1.711-0.526h-31.779v12.053h20.611c0.751,0,1.314-0.169,1.717-0.519c0.395-0.339,0.716-0.966,0.968-1.862
		h1.188v12.842h-1.188c-0.251-0.867-0.573-1.476-0.968-1.843c-0.403-0.358-0.966-0.546-1.717-0.546H349.848z"/>
	<linearGradient id="SVGID_17_" gradientUnits="userSpaceOnUse" x1="394.2813" y1="584.0166" x2="442.8857" y2="584.0166">
		<stop  offset="0" style="stop-color:#1F4297"/>
		<stop  offset="0.5161" style="stop-color:#058CC5"/>
		<stop  offset="0.5797" style="stop-color:#0487C1"/>
		<stop  offset="0.6858" style="stop-color:#0379B8"/>
		<stop  offset="0.8205" style="stop-color:#0064AA"/>
		<stop  offset="0.9194" style="stop-color:#02529F"/>
	</linearGradient>
	<path fill="url(#SVGID_17_)" d="M407.759,599.848h31.216c0.77,0,1.352-0.18,1.753-0.521c0.395-0.348,0.717-0.965,0.967-1.86h1.191
		v13.139h-1.191c-0.25-0.896-0.572-1.523-0.967-1.862c-0.401-0.35-0.983-0.519-1.753-0.519h-44.693v-1.2
		c0.896-0.241,1.522-0.573,1.862-0.967c0.35-0.394,0.528-0.975,0.528-1.744V561.33c0-0.77-0.179-1.352-0.528-1.744
		c-0.34-0.403-0.967-0.728-1.862-0.977v-1.182h15.859v1.182c-0.896,0.232-1.514,0.546-1.861,0.948
		c-0.35,0.412-0.521,1.003-0.521,1.772V599.848z"/>
	<linearGradient id="SVGID_18_" gradientUnits="userSpaceOnUse" x1="448.2012" y1="584.0166" x2="496.8047" y2="584.0166">
		<stop  offset="0" style="stop-color:#1F4297"/>
		<stop  offset="0.5161" style="stop-color:#058CC5"/>
		<stop  offset="0.5797" style="stop-color:#0487C1"/>
		<stop  offset="0.6858" style="stop-color:#0379B8"/>
		<stop  offset="0.8205" style="stop-color:#0064AA"/>
		<stop  offset="0.9194" style="stop-color:#02529F"/>
	</linearGradient>
	<path fill="url(#SVGID_18_)" d="M461.679,599.848h31.214c0.771,0,1.353-0.18,1.755-0.521c0.394-0.348,0.715-0.965,0.967-1.86h1.19
		v13.139h-1.19c-0.252-0.896-0.573-1.523-0.967-1.862c-0.402-0.35-0.984-0.519-1.755-0.519h-44.691v-1.2
		c0.896-0.241,1.521-0.573,1.86-0.967c0.35-0.394,0.528-0.975,0.528-1.744V561.33c0-0.77-0.179-1.352-0.528-1.744
		c-0.34-0.403-0.965-0.728-1.86-0.977v-1.182h15.857v1.182c-0.894,0.232-1.512,0.546-1.861,0.948
		c-0.348,0.412-0.519,1.003-0.519,1.772V599.848z"/>
	<linearGradient id="SVGID_19_" gradientUnits="userSpaceOnUse" x1="502.1191" y1="582.8262" x2="552.1377" y2="582.8262">
		<stop  offset="0" style="stop-color:#1F4297"/>
		<stop  offset="0.5161" style="stop-color:#058CC5"/>
		<stop  offset="0.5797" style="stop-color:#0487C1"/>
		<stop  offset="0.6858" style="stop-color:#0379B8"/>
		<stop  offset="0.8205" style="stop-color:#0064AA"/>
		<stop  offset="0.9194" style="stop-color:#02529F"/>
	</linearGradient>
	<path fill="url(#SVGID_19_)" d="M515.597,585.922v13.926h32.675c0.742,0,1.315-0.18,1.709-0.521
		c0.394-0.348,0.716-0.965,0.966-1.86h1.191v13.139h-1.191c-0.25-0.896-0.572-1.523-0.966-1.862
		c-0.394-0.35-0.967-0.519-1.709-0.519h-46.152v-1.2c0.896-0.241,1.522-0.573,1.862-0.967c0.35-0.394,0.528-0.975,0.528-1.744
		V561.33c0-0.77-0.179-1.352-0.528-1.744c-0.34-0.403-0.967-0.728-1.862-0.977v-1.182h45.257c0.742,0,1.315-0.18,1.71-0.536
		c0.393-0.358,0.715-0.968,0.967-1.845h1.189v13.139h-1.189c-0.252-0.896-0.574-1.504-0.967-1.862
		c-0.395-0.35-0.968-0.526-1.71-0.526h-31.779v12.053h20.611c0.751,0,1.314-0.169,1.718-0.519c0.394-0.339,0.716-0.966,0.968-1.862
		h1.188v12.842h-1.188c-0.252-0.867-0.574-1.476-0.968-1.843c-0.403-0.358-0.967-0.546-1.718-0.546H515.597z"/>
	<linearGradient id="SVGID_20_" gradientUnits="userSpaceOnUse" x1="560.0215" y1="582.8262" x2="617.2969" y2="582.8262">
		<stop  offset="0" style="stop-color:#1F4297"/>
		<stop  offset="0.5161" style="stop-color:#058CC5"/>
		<stop  offset="0.5797" style="stop-color:#0487C1"/>
		<stop  offset="0.6858" style="stop-color:#0379B8"/>
		<stop  offset="0.8205" style="stop-color:#0064AA"/>
		<stop  offset="0.9194" style="stop-color:#02529F"/>
	</linearGradient>
	<path fill="url(#SVGID_20_)" d="M572.568,573.43v30.884c0,0.77,0.169,1.351,0.519,1.744s0.967,0.726,1.862,0.967v1.2h-14.928v-1.2
		c0.896-0.241,1.521-0.573,1.861-0.967c0.349-0.394,0.527-0.975,0.527-1.744v-43.02c0-0.744-0.179-1.315-0.527-1.708
		c-0.341-0.403-0.966-0.728-1.861-0.977v-1.182h17.271v1.182c-1.064,0.277-1.602,0.851-1.602,1.719c0,0.591,0.35,1.252,1.038,1.969
		l28.03,29.139v-30.142c0-0.744-0.18-1.315-0.529-1.708c-0.339-0.403-0.966-0.728-1.861-0.977v-1.182h14.928v1.182
		c-0.895,0.249-1.513,0.573-1.862,0.977c-0.348,0.393-0.519,0.964-0.519,1.708v43.02c0,0.77,0.171,1.351,0.519,1.744
		c0.35,0.394,0.968,0.726,1.862,0.967v1.2h-16.001v-1.2c1.038-0.216,1.565-0.751,1.565-1.593c0-0.502-0.608-1.37-1.826-2.613
		L572.568,573.43z"/>
	<linearGradient id="SVGID_21_" gradientUnits="userSpaceOnUse" x1="624.9209" y1="582.8262" x2="682.4209" y2="582.8262">
		<stop  offset="0" style="stop-color:#1F4297"/>
		<stop  offset="0.5161" style="stop-color:#058CC5"/>
		<stop  offset="0.5797" style="stop-color:#0487C1"/>
		<stop  offset="0.6858" style="stop-color:#0379B8"/>
		<stop  offset="0.8205" style="stop-color:#0064AA"/>
		<stop  offset="0.9194" style="stop-color:#02529F"/>
	</linearGradient>
	<path fill="url(#SVGID_21_)" d="M675.349,590.772l7.072,10.578l-0.968,0.681c-0.696-0.654-1.271-0.975-1.719-0.975
		c-0.444,0-1.698,0.6-3.759,1.787c-4.257,2.463-7.857,4.127-10.765,4.986c-2.917,0.859-6.39,1.289-10.409,1.289
		c-8.009,0-14.586-1.907-19.714-5.701c-3.034-2.21-5.415-4.948-7.15-8.225c-2.005-3.741-3.017-7.875-3.017-12.386
		c0-6.157,1.799-11.509,5.396-16.036c5.415-6.829,13.586-10.238,24.528-10.238c4.021,0,7.465,0.421,10.349,1.261
		c2.873,0.852,6.469,2.507,10.781,4.985c2.061,1.164,3.314,1.755,3.759,1.755c0.447,0,1.022-0.322,1.719-0.967l0.968,0.661
		l-7.072,10.613l-1.009-0.67c0.052-0.395,0.079-0.725,0.079-1.002c0-0.717-0.313-1.387-0.93-2.014
		c-0.627-0.636-1.727-1.396-3.311-2.291c-4.396-2.47-9.05-3.706-13.962-3.706c-5.801,0-10.426,1.45-13.879,4.351
		c-4.065,3.4-6.104,7.84-6.104,13.315c0,5.478,2.039,9.907,6.104,13.298c3.453,2.9,8.078,4.352,13.879,4.352
		c4.912,0,9.566-1.235,13.962-3.714c1.584-0.896,2.684-1.657,3.311-2.292c0.616-0.636,0.93-1.308,0.93-2.031
		c0-0.269-0.027-0.591-0.079-0.968L675.349,590.772z"/>
	<linearGradient id="SVGID_22_" gradientUnits="userSpaceOnUse" x1="690.0439" y1="582.8262" x2="740.0615" y2="582.8262">
		<stop  offset="0" style="stop-color:#1F4297"/>
		<stop  offset="0.5161" style="stop-color:#058CC5"/>
		<stop  offset="0.5797" style="stop-color:#0487C1"/>
		<stop  offset="0.6858" style="stop-color:#0379B8"/>
		<stop  offset="0.8205" style="stop-color:#0064AA"/>
		<stop  offset="0.9194" style="stop-color:#02529F"/>
	</linearGradient>
	<path fill="url(#SVGID_22_)" d="M703.523,585.922v13.926h32.673c0.744,0,1.315-0.18,1.708-0.521
		c0.396-0.348,0.717-0.965,0.969-1.86h1.188v13.139h-1.188c-0.252-0.896-0.572-1.523-0.969-1.862
		c-0.393-0.35-0.964-0.519-1.708-0.519h-46.152v-1.2c0.896-0.241,1.522-0.573,1.864-0.967c0.348-0.394,0.526-0.975,0.526-1.744
		V561.33c0-0.77-0.179-1.352-0.526-1.744c-0.342-0.403-0.969-0.728-1.864-0.977v-1.182h45.257c0.744,0,1.315-0.18,1.708-0.536
		c0.396-0.358,0.717-0.968,0.969-1.845h1.191v13.139h-1.191c-0.252-0.896-0.572-1.504-0.969-1.862
		c-0.393-0.35-0.964-0.526-1.708-0.526h-31.777v12.053h20.609c0.751,0,1.316-0.169,1.719-0.519c0.393-0.339,0.717-0.966,0.965-1.862
		h1.191v12.842h-1.191c-0.248-0.867-0.572-1.476-0.965-1.843c-0.402-0.358-0.968-0.546-1.719-0.546H703.523z"/>
</g>
</svg>
